# xmcd
# 
# Track frame offsets:
#     150
#     24673
#     42510
#     62200
#     85014
#     105291
#     125919
#     146392
#     161422
#     180419
#     199969
#     219473
#     237312
#     250702
# 
# Disc length: 3556
# 
# Revision: 3
# Processed by: cddbd v1.5.2PL0 Copyright (c) Steve Scherf et al.
# Submitted via: fre:ac v1.0.27
# 
DISCID=bf0de20e
DTITLE=Journey - Frontiers (紙ジャケット仕様) 2006 Remastering MHCP-1172
DYEAR=1983
DGENRE=Rock
TTITLE0=Separate Ways (Worlds Apart)
TTITLE1=Send Her My Love
TTITLE2=Chain Reaction
TTITLE3=After The Fall
TTITLE4=Faithfully
TTITLE5=Edge Of The Blade
TTITLE6=Troubled Child
TTITLE7=Back Talk
TTITLE8=Frontiers
TTITLE9=Rubicon
TTITLE10=Only The Young (Bonus Tracks)
TTITLE11=Ask The Lonely (Bonus Tracks)
TTITLE12=Liberty (Bonus Tracks)
TTITLE13=Only Solutions (Bonus Tracks)
EXTD=YEAR: 1983
EXTT0=
EXTT1=
EXTT2=
EXTT3=
EXTT4=
EXTT5=
EXTT6=
EXTT7=
EXTT8=
EXTT9=
EXTT10=
EXTT11=
EXTT12=
EXTT13=
PLAYORDER=
